<?xml version="1.0" standalone="no"?>
<!DOCTYPE svg PUBLIC "-//W3C//DTD SVG 20010904//EN"
 "http://www.w3.org/TR/2001/REC-SVG-20010904/DTD/svg10.dtd">
<svg version="1.0" xmlns="http://www.w3.org/2000/svg"
 width="1600.000000pt" height="1082.000000pt" viewBox="0 0 1600.000000 1082.000000"
 preserveAspectRatio="xMidYMid meet">

<g transform="translate(0.000000,1082.000000) scale(0.100000,-0.100000)"
fill="#000000" stroke="none">
<path d="M0 5410 l0 -5410 8000 0 8000 0 0 5410 0 5410 -8000 0 -8000 0 0
-5410z m9389 4085 c33 -36 61 -71 61 -78 0 -7 -30 -42 -66 -77 -70 -68 -154
-174 -154 -194 0 -6 71 -83 159 -170 l158 -159 -18 -32 c-11 -17 -30 -38 -44
-45 -14 -7 -25 -19 -25 -27 0 -23 -16 -15 -66 35 -143 138 -248 232 -259 232
-7 0 -15 -8 -18 -17 -3 -10 -19 -55 -35 -100 -48 -131 -64 -260 -60 -468 l3
-180 -93 3 c-74 3 -94 7 -101 20 -14 28 -21 238 -11 367 23 333 146 602 394
863 49 50 94 92 101 92 7 0 40 -29 74 -65z m-614 -287 c2 -2 -14 -47 -38 -99
l-42 -96 -275 -6 c-151 -4 -544 -7 -872 -7 l-596 0 -23 -37 c-12 -21 -71 -114
-129 -208 -59 -93 -171 -271 -248 -395 -77 -124 -194 -310 -260 -415 -66 -104
-191 -302 -277 -440 -86 -137 -199 -317 -251 -400 -52 -82 -94 -156 -94 -165
0 -9 30 -63 68 -121 70 -108 181 -284 339 -536 51 -81 88 -152 84 -156 -11
-11 -162 -77 -176 -77 -5 0 -41 50 -80 111 -69 109 -197 309 -297 464 -28 44
-67 105 -86 135 -19 30 -53 82 -75 114 l-39 59 17 31 c10 17 75 121 145 231
69 110 183 292 254 405 70 113 200 320 288 460 88 140 211 336 273 435 320
510 432 687 449 706 l18 22 959 -5 c528 -3 961 -7 964 -10z m-500 -627 c187
-4 319 -8 294 -9 -46 -2 -109 -40 -109 -67 0 -7 -9 -20 -20 -30 -11 -10 -20
-24 -20 -31 0 -7 -10 -20 -22 -28 l-22 -16 24 -1 25 -1 -25 -8 c-14 -4 -146
-8 -295 -9 -148 -1 -394 -4 -546 -8 l-276 -6 -90 -146 c-50 -80 -184 -294
-298 -476 -114 -181 -250 -397 -302 -480 -52 -82 -116 -184 -143 -225 -27 -41
-49 -86 -49 -99 -1 -13 13 -44 30 -70 55 -81 239 -381 239 -390 0 -5 6 -14 14
-20 16 -13 29 -54 15 -45 -5 3 -10 -1 -11 -8 0 -7 -2 -17 -2 -23 -1 -5 -21
-30 -44 -55 -33 -35 -41 -50 -37 -69 5 -20 4 -21 -7 -9 -7 7 -17 21 -23 30 -5
8 -89 134 -186 279 -97 145 -192 290 -212 321 l-37 58 33 53 c36 60 271 434
478 762 184 292 412 657 473 755 l48 80 382 -1 c209 -1 534 -5 721 -8z m1065
-157 c0 -3 -4 -3 -9 1 -6 3 -15 0 -21 -7 -82 -98 -90 -95 -90 32 l0 100 60
-60 c33 -33 60 -63 60 -66z m-560 -403 c103 -6 104 -6 73 -21 -18 -8 -33 -20
-33 -27 0 -7 -13 -28 -30 -46 -16 -19 -30 -39 -30 -45 0 -5 -7 -15 -15 -22
-13 -11 -13 -15 -3 -21 8 -5 -4 -9 -32 -9 -85 -1 -300 -19 -363 -31 -254 -47
-499 -167 -666 -325 -80 -75 -96 -97 -84 -118 4 -8 106 -114 226 -235 189
-191 218 -224 211 -243 -11 -38 -33 -76 -48 -85 -7 -4 -15 -14 -17 -21 -3 -9
-16 -3 -40 20 -20 18 -60 55 -90 82 -30 27 -120 113 -201 192 -81 79 -151 144
-156 144 -5 0 -20 -26 -35 -57 -78 -171 -107 -328 -107 -590 0 -103 5 -223 12
-265 6 -43 10 -80 7 -82 -2 -2 -47 -1 -100 1 l-96 6 -14 86 c-22 133 -19 522
4 630 92 427 343 747 731 932 264 125 539 172 896 150z m-310 -479 l65 -68
-52 -49 c-28 -27 -50 -52 -47 -57 14 -22 -14 -3 -64 46 -32 29 -79 74 -107
100 -56 53 -53 60 25 72 25 4 54 10 65 15 38 15 50 9 115 -59z m-800 -893 c52
-56 104 -111 115 -122 20 -19 20 -19 -1 -9 -18 10 -25 6 -50 -28 -16 -22 -34
-40 -41 -40 -6 0 -13 -5 -15 -10 -2 -6 -33 17 -71 51 l-67 61 0 109 c0 133 -4
133 130 -12z m-500 -637 l45 -8 -32 -8 c-25 -6 -43 -23 -82 -81 -47 -70 -49
-74 -28 -78 12 -2 -30 -5 -94 -6 -139 -1 -371 -19 -381 -29 -4 -4 32 -47 80
-96 48 -50 81 -91 74 -94 -7 -2 -12 -10 -12 -18 0 -8 -6 -14 -13 -14 -19 0
-69 -55 -60 -65 5 -4 0 -4 -10 2 -10 5 -68 56 -129 114 -154 144 -134 135
-226 103 -84 -29 -172 -70 -172 -81 0 -4 64 -73 143 -153 229 -233 256 -264
243 -276 -6 -5 -22 -24 -37 -40 -28 -35 -74 -51 -86 -32 -4 7 -30 33 -58 57
-48 42 -189 175 -307 289 l-56 55 -34 -23 c-18 -13 -85 -75 -148 -137 l-116
-113 -69 62 c-39 34 -71 69 -73 78 -4 20 126 160 226 243 248 205 469 303 797
352 96 15 527 12 615 -3z m-735 -882 c3 -5 1 -10 -4 -10 -6 0 -11 5 -11 10 0
6 2 10 4 10 3 0 8 -4 11 -10z m-715 -1654 c31 -7 78 -23 105 -35 51 -22 175
-101 175 -112 0 -3 -19 -28 -42 -55 -24 -28 -55 -64 -70 -82 l-27 -32 -65 44
c-95 65 -151 81 -276 80 -95 0 -110 -3 -160 -28 -160 -82 -240 -214 -240 -396
0 -98 17 -159 65 -235 75 -118 214 -195 354 -195 62 0 166 28 226 60 l50 27 0
114 0 114 -140 2 c-77 1 -146 2 -153 3 -10 0 -12 22 -10 93 l3 92 260 0 260 0
3 -255 c3 -288 10 -259 -88 -327 -134 -91 -229 -117 -425 -117 -135 0 -157 3
-222 25 -103 37 -175 84 -251 164 -119 124 -172 259 -172 433 0 184 55 317
185 448 65 66 96 89 165 121 47 23 112 46 145 52 33 6 69 13 80 15 34 8 207
-3 265 -18z m1708 -98 l3 -98 -348 -2 -348 -3 0 -150 0 -150 308 -3 307 -2 0
-95 0 -95 -307 -2 -308 -3 -3 -162 -2 -163 357 -2 358 -3 0 -95 0 -95 -470 0
-470 0 -3 604 c-2 477 0 606 10 613 7 4 216 6 463 5 l450 -2 3 -97z m675 91
c2 -2 48 -62 103 -132 192 -249 320 -415 419 -545 55 -72 103 -131 108 -132 4
0 7 182 7 404 0 469 -15 420 127 412 48 -3 91 -6 96 -6 4 0 6 -273 5 -607 l-3
-608 -94 -3 c-63 -2 -98 1 -108 10 -8 6 -113 141 -234 298 -120 157 -263 341
-316 410 l-98 124 -5 -419 -5 -420 -112 -3 -113 -3 0 609 c0 335 3 612 8 616
7 8 209 3 215 -5z m1592 -604 l0 -610 -112 -3 -113 -3 0 609 c0 335 3 612 7
616 4 3 54 5 112 4 l106 -3 0 -610z m637 606 l68 -6 129 -186 c71 -103 134
-196 140 -208 7 -11 16 -21 21 -21 5 0 31 33 58 73 125 184 245 343 265 349
35 10 225 9 232 -2 3 -5 -83 -132 -191 -282 -108 -150 -201 -283 -207 -295 -8
-19 10 -49 149 -242 218 -302 274 -383 274 -393 0 -4 -58 -8 -129 -8 l-130 0
-44 63 c-204 291 -270 382 -276 385 -4 1 -66 -81 -137 -184 -71 -102 -141
-203 -157 -225 l-27 -39 -123 0 c-68 0 -126 3 -130 6 -3 3 37 65 88 137 52 73
113 159 136 192 24 33 78 109 121 168 43 60 78 114 78 121 0 7 -92 142 -205
301 -112 158 -202 292 -199 296 6 10 93 10 196 0z"/>
</g>
</svg>
